<svg id="Capa_1" data-name="Capa 1" xmlns="http://www.w3.org/2000/svg" viewBox="0 0 1100 351.32"><defs><style>.cls-1{fill:#fff;}.cls-2{fill:none;}</style></defs><path class="cls-1" d="M165.28,466.38c-17.53-15.89-40.34-19.3-50.93-7.61s-5,34.06,12.57,49.94,40.34,19.3,50.94,7.6S182.82,482.27,165.28,466.38Z" transform="translate(-96 -352.42)"/><path class="cls-1" d="M229.72,465.28c14-7.21,16.64-30.12,5.82-51.17s-31-32.26-45-25.05-16.64,30.12-5.82,51.16S215.69,472.49,229.72,465.28Z" transform="translate(-96 -352.42)"/><path class="cls-1" d="M327.36,408.88c.5-23.66-11.89-43.11-27.66-43.44s-29,18.59-29.46,42.25,11.89,43.1,27.66,43.43S326.86,432.54,327.36,408.88Z" transform="translate(-96 -352.42)"/><path class="cls-1" d="M374.21,486.34c15.43,3.24,31.9-12.9,36.76-36.06s-3.7-44.56-19.14-47.81-31.9,12.9-36.77,36.06S358.77,483.09,374.21,486.34Z" transform="translate(-96 -352.42)"/><path class="cls-1" d="M423.71,453c2.88-13.69,2-27.5-2.61-38.89-5.21-13-14.9-21.88-26.59-24.34a32.58,32.58,0,0,0-6.68-.69c-20.66,0-39.8,19.69-45.51,46.81-2.78,13.24-2,26.6,2.18,37.77a138.72,138.72,0,0,0-31.59-12.91c16.06-7.87,27-28.14,27.46-51.55.66-31.32-17.09-56.24-40.4-56.73h-.67c-22.95,0-41.43,24.16-42.07,55-.3,14,3.17,27.39,9.76,37.73a45.27,45.27,0,0,0,10.39,11.57A107.56,107.56,0,0,0,258,459.35c-2.46.57-4.91,1.22-7.3,1.93,7.2-14.62,5.91-34.71-3.55-53.12-10.71-20.84-29.27-34.31-47.28-34.31a33,33,0,0,0-15.24,3.63c-20.74,10.66-25.77,40.83-11.45,68.69,9.55,18.59,25.28,31.35,41.5,33.86a111.4,111.4,0,0,0-18.5,18.87,47.65,47.65,0,0,0-1.41-9.16c-3-11.9-10.35-23.62-20.72-33-12.57-11.39-27.93-17.92-42.15-17.92-11,0-20.61,4-27.17,11.22-8,8.86-10.66,21.73-7.23,35.32,3,11.9,10.35,23.62,20.72,33,12.56,11.39,27.93,17.92,42.15,17.92a39.5,39.5,0,0,0,16.95-3.66c-12.16,30.91-15.78,68.41-10.2,106a72.68,72.68,0,0,0,14.3,33.73c.43.57.89,1.13,1.34,1.69a76.37,76.37,0,0,0,18.84,16.55c.58.37,1.18.71,1.77,1.06A86,86,0,0,0,228,701.34c.52.12,1.06.21,1.59.32A92.52,92.52,0,0,0,260.88,703c.54-.06,1.07-.17,1.6-.24a93.69,93.69,0,0,0,22.66-6c.6-.25,1.21-.46,1.81-.72a93.05,93.05,0,0,0,25.27-16.27c.42-.38.82-.79,1.24-1.17,1.34-1.25,2.73-2.45,4-3.79,4.41-4.6,16.73-8.51,28.64-12.29,31.91-10.11,80.12-25.38,74.35-85.37-2.46-25.61-17.81-54.39-41.21-77.41C399.52,499.1,418.11,479.62,423.71,453Zm-46.85,44.82-2.6-.11,1.88,1.8c24.05,23,39.89,52.09,42.37,77.87,5.62,58.42-41.69,73.41-73,83.33-12.15,3.85-24.71,7.83-29.47,12.79-1.34,1.41-2.79,2.68-4.21,4-.45.41-.87.85-1.32,1.25a91.29,91.29,0,0,1-23.19,15c-.61.27-1.2.59-1.81.85a91.56,91.56,0,0,1-23.13,6.24c-.53.08-1.06.18-1.59.24a93.4,93.4,0,0,1-11.4.76,94.78,94.78,0,0,1-19.6-2.08c-.53-.11-1.06-.2-1.58-.32a83.82,83.82,0,0,1-25.35-10.33c-.57-.36-1.18-.67-1.75-1a74.64,74.64,0,0,1-15.68-13.76c-.51-.59-1-1.22-1.46-1.83A70.61,70.61,0,0,1,169,638.3c-5.68-38.22-1.75-76.37,11.07-107.42l1.1-2.67-2.5,1.45a36.64,36.64,0,0,1-18.36,4.66c-13.74,0-28.62-6.34-40.84-17.41-10.08-9.13-17.23-20.51-20.14-32-3.25-12.94-.78-25.16,6.8-33.52,6.18-6.82,15.31-10.58,25.71-10.58,13.73,0,28.62,6.34,40.84,17.41,10.08,9.14,17.23,20.51,20.13,32a44.79,44.79,0,0,1,1.4,11.51l0,3,1.81-2.45a109.69,109.69,0,0,1,21.7-22.2l2-1.53-2.51-.23c-16.39-1.51-32.6-14.19-42.32-33.09-13.81-26.89-9.16-55.9,10.61-66.06a31,31,0,0,1,14.34-3.41c17.28,0,35.16,13.05,45.54,33.25,9.62,18.73,10.56,39.19,2.46,53.38l-1.26,2.2,2.41-.78c3.06-1,6.23-1.86,9.42-2.6a106.25,106.25,0,0,1,21.92-2.68l3.16-.06-2.64-1.74a41.93,41.93,0,0,1-12.21-12.69c-6.38-10-9.74-23-9.45-36.64.62-29.76,18.24-53.07,40.1-53.07h.65c22.2.47,39.11,24.5,38.47,54.72-.5,23.9-12.09,44.36-28.85,50.93l-2.89,1.13,3,.73A137.34,137.34,0,0,1,346,476.71l2.58,1.51-1.19-2.75c-.21-.48-.42-1-.61-1.46-4.42-11-5.31-24.44-2.52-37.75C349.76,410,368.09,391,387.83,391a30.78,30.78,0,0,1,6.28.65c11,2.32,20.21,10.76,25.17,23.15,4.42,11,5.31,24.44,2.51,37.75C416.16,479.37,397.05,498.63,376.86,497.78Z" transform="translate(-96 -352.42)"/><path class="cls-1" d="M477.15,387.87h46.22c14.7,0,25.53,3.72,32.48,10.66,5.17,5.18,8.08,12.29,8.08,21v.33c0,19.07-15.19,30.38-37,31.67L564.58,501h-4.36l-37.5-49.29h-42V501h-3.56Zm44.44,60.6c26.18,0,38.79-12.44,38.79-28.44v-.32c0-17.94-13.9-28.61-37.33-28.61H480.71v57.37Z" transform="translate(-96 -352.42)"/><path class="cls-1" d="M594.13,387.87h79v3.23H597.68v51.39H666.2v3.23H597.68v52H674V501H594.13Z" transform="translate(-96 -352.42)"/><path class="cls-1" d="M700.92,387.87h78.22v3.23H704.48v52.52h67.71v3.23H704.48V501h-3.56Z" transform="translate(-96 -352.42)"/><path class="cls-1" d="M800,450.89v-63h3.55v63c0,32.49,17.3,48.65,42.35,48.65,25.37,0,42-16.16,42-48.48V387.87h3.56v63c0,34.59-18.43,51.88-45.74,51.88C818.71,502.77,800,485.64,800,450.89Z" transform="translate(-96 -352.42)"/><path class="cls-1" d="M918.24,444.75v-.32c0-30.22,21.49-58.5,55.92-58.5,17.28,0,28,5.17,39.26,14.54l-2.26,2.75c-10.5-8.56-21-14.06-37.17-14.06-31.83,0-52.19,27.15-52.19,55.11v.32c0,29.41,19.39,55.11,52.36,55.11,16.8,0,30.7-7.44,40.24-15.51V447.82H972.7v-3.55H1018v41.21c-10.67,9.7-25.7,17.45-44,17.45C938.6,502.93,918.24,476.27,918.24,444.75Z" transform="translate(-96 -352.42)"/><path class="cls-1" d="M1050.24,387.87h3.56V501h-3.56Z" transform="translate(-96 -352.42)"/><path class="cls-1" d="M1083.52,444.59v-.32c0-30.87,22-58.34,56.24-58.34S1196,413.4,1196,444.27v.32c0,30.87-22,58.34-56.24,58.34S1083.52,475.46,1083.52,444.59Zm108.93.16v-.32c0-28.92-21.34-55.27-52.85-55.27-31.67,0-52.52,25.86-52.52,54.95v.32c0,28.93,21.33,55.27,52.84,55.27C1171.6,499.7,1192.45,473.84,1192.45,444.75Z" transform="translate(-96 -352.42)"/><path class="cls-1" d="M491.93,673.94q-10.35-7.61-11.54-22.14a8,8,0,0,1,1.71-5.3,6.95,6.95,0,0,1,9.83-.68,9,9,0,0,1,3,4.78l.69,2a14.26,14.26,0,0,0,3.07,6.5q5.82,5.82,12,5.82a18,18,0,0,0,13-5.56,17.6,17.6,0,0,0,5.64-12.91q0-7.69-6-14.71a70.3,70.3,0,0,0-15.91-9.06,61.18,61.18,0,0,1-18.29-11.28q-14.72-13.51-14.71-30.61a48.89,48.89,0,0,1,2.91-16.07q4.28-12.13,12.74-17.7a32.32,32.32,0,0,1,18-5.56,38,38,0,0,1,22.74,7.7,24.22,24.22,0,0,1,6.41,9.15,29.33,29.33,0,0,1,2.31,11.37,19.74,19.74,0,0,1-2.39,10.08A7.77,7.77,0,0,1,535.1,582a7.58,7.58,0,0,1-4.27,1.54,18.4,18.4,0,0,1-5.3-2.23c-1.14-.79-1.71-2.39-1.71-4.78l.51-6.5-.51-3.59a12.47,12.47,0,0,0-3.33-5.73,9.37,9.37,0,0,0-5.73-2.82,2.09,2.09,0,0,0-1.54.51,18.21,18.21,0,0,0-9.32,8.21A24.06,24.06,0,0,0,500.39,579a16.44,16.44,0,0,0,3.25,10.35,31.23,31.23,0,0,0,8.38,7.35,100.79,100.79,0,0,0,11.11,5.89A121.44,121.44,0,0,1,539.38,612q14,9.91,14,30.61a49.63,49.63,0,0,1-3.76,18.81q-5.31,11.11-13.43,15.39t-21.11,4.78A38.18,38.18,0,0,1,491.93,673.94Z" transform="translate(-96 -352.42)"/><path class="cls-1" d="M563.65,669.58V661a524.87,524.87,0,0,1,11.29-86.34l1.54-6.85A171.47,171.47,0,0,1,582,547.33a12.34,12.34,0,0,1,9.06-7l7-.52a22.37,22.37,0,0,1,11.12,3q5.29,3,8,10a87.24,87.24,0,0,1,5,19.15l1,5.47q4.61,22.41,7,38.39T635,656.07a5,5,0,0,1-3.24,4.88,14.5,14.5,0,0,1-5.82,1.45,11.3,11.3,0,0,1-7.35-2.65,13.41,13.41,0,0,1-4.45-7.27l-2.73-14c-.23-1.37-1.14-2.05-2.74-2.05H597.34a90.84,90.84,0,0,1-11.12-.68,2.41,2.41,0,0,0-2.73,2.73l-1,23.09q-.51,6.32-.51,12.82-.69,6-7,6Q563.66,680,563.65,669.58Zm39.84-48.22q3.76,0,4-.42a2.93,2.93,0,0,0,.34-.77,2.72,2.72,0,0,0,.09-.69,7.27,7.27,0,0,0-.86-3.24l-.51-1.89a336,336,0,0,0-10.26-45.48c-.11-.45-.25-1-.42-1.71a5.36,5.36,0,0,0-1.12-2,.38.38,0,0,1-.08.26,2.29,2.29,0,0,1-.43.25q-5.13,27.36-8.72,54.55l-.17,1c0,.46.62.69,1.88.69Q593.93,621.36,603.49,621.36Z" transform="translate(-96 -352.42)"/><path class="cls-1" d="M655.9,684.12a8.71,8.71,0,0,1-4.19-2.91,16.65,16.65,0,0,1-1.88-6l-.34-2.05q-2.57-27-2.57-55,0-23.26,1.88-46.85l1.2-22.91a13.65,13.65,0,0,1,3.08-8.9,9.9,9.9,0,0,1,8-3.76,14.9,14.9,0,0,1,7.44,1.88,14.27,14.27,0,0,1,5.13,4.7,31.8,31.8,0,0,1,3,6.08l.69,1.7a359.61,359.61,0,0,1,15.47,45.31A357.85,357.85,0,0,0,708,640a2.53,2.53,0,0,0,.26,1.28,3.22,3.22,0,0,0,1.28,1l-.51-59-.68-19.83.17-8q0-6.33,2.9-9.24a10.4,10.4,0,0,1,7.7-2.91l6,.86q4.11,1,5.13,5.9a44.15,44.15,0,0,1,1,9.15q-.51,29.24-2.4,55.74l-1.19,16.41a278.91,278.91,0,0,1-4.11,38.81,6.47,6.47,0,0,1-1.71,4.79q-2.73,5-6.84,5a8.69,8.69,0,0,1-5.47-2.22,6.44,6.44,0,0,0-1.19-1.2,16.85,16.85,0,0,1-3.08-3.76l-6.16-14.54q-7.35-16.07-13.16-32.48L673.08,580l-1-1.53a179.93,179.93,0,0,0-1,18.64l-.17,1.53q-2.05,26.85-2.05,54.21l.51,23.59a24.87,24.87,0,0,1-.51,5.47c0,1.14-.83,2-2.48,2.48a15.52,15.52,0,0,1-4.53.77A17.23,17.23,0,0,1,655.9,684.12Z" transform="translate(-96 -352.42)"/><path class="cls-1" d="M802.54,691.13a37,37,0,0,1-6.67-16.76q-1.2-7.7-2-20.86-2.05-21.37-2.05-44,0-23.41,1.36-42.57l.69-13.17a11,11,0,0,1,4.79-8.37,23.06,23.06,0,0,1,9.91-3.51,87.89,87.89,0,0,1,11.46-.77l14.19.86a31.52,31.52,0,0,1,21.89,12.31q10.77,14,10.77,38.81l-.51,10.6A40.54,40.54,0,0,1,855,626.67q-15.74,17.77-35.91,17.78c-1,.34-1.56.65-1.62.94a5.67,5.67,0,0,0-.08,1.11l1.7,28.55a43.42,43.42,0,0,1-.85,8.55,13.63,13.63,0,0,1-3.93,7.27,9.14,9.14,0,0,1-6.33,3A6.79,6.79,0,0,1,802.54,691.13Zm36.59-83.44a39.87,39.87,0,0,0,4.45-18.64,55,55,0,0,0-5.13-22.91q-6-9.92-18.3-11.29a4.36,4.36,0,0,0-1.54.26c-.46.17-.68.66-.68,1.45q0,6.33-.34,15.3t-.69,15.82l-.51,6.84v23.25c0,3.2.85,4.79,2.56,4.79Q833.32,618.63,839.13,607.69Z" transform="translate(-96 -352.42)"/><path class="cls-1" d="M883.76,676.59q-1.54-1.53-1.89-5.13a357,357,0,0,1-4.44-55.91q.17-16.92,1.11-28.9t3.33-28.72q.87-6.33,3.25-9.32t10.26-4.19a80.46,80.46,0,0,1,12.83-1q15.72,0,21.2,4.44,2.39,2.05,2.39,4.11,0,2.22-3.25,3.76l-5.13.85-12.65-1.37a1.81,1.81,0,0,0-2,2,182.34,182.34,0,0,1-2.91,20.18c0,.57.69.88,2.05.94s2.68.09,3.94.09a24.93,24.93,0,0,1,6.07.76,18.21,18.21,0,0,1,5.72,2.66q2.74,1.88,2.74,4.44c0,1.83-1.25,3.25-3.76,4.28a24.22,24.22,0,0,1-5.81.68c-4.34-.11-6.67-.2-7-.26a2.59,2.59,0,0,1-1-.42,12.81,12.81,0,0,0-2.91.25c-.68.17-1.14,1.34-1.37,3.51l-.68,42.06q0,13.86,1.2,26v2.05c0,1.83,1.08,2.74,3.25,2.74a76.68,76.68,0,0,1,9.06.51,12.38,12.38,0,0,1,3.25.43,12.08,12.08,0,0,1,2.73,1.11,3.23,3.23,0,0,1,1.54,2.22,5.12,5.12,0,0,1-2.73,4.79A14.73,14.73,0,0,1,913,679.5Q886.67,679.5,883.76,676.59Z" transform="translate(-96 -352.42)"/><path class="cls-1" d="M949.75,679.84q-4.95,0-6.32-6a333.7,333.7,0,0,1-3.93-50.44l.17-9.58q0-14.88.42-28.81a203.16,203.16,0,0,1,2.83-28A19.92,19.92,0,0,1,947.19,547a14.25,14.25,0,0,1,11.29-5.48,71,71,0,0,1,23.5,4,50.44,50.44,0,0,1,19.58,12.14,35.76,35.76,0,0,1,9.92,20.27,103,103,0,0,1,1.71,18.46,59.12,59.12,0,0,1-3.42,19.67,101.48,101.48,0,0,1-19.66,34.79A154.25,154.25,0,0,1,960,677.1a13.83,13.83,0,0,1-8.38,2.91Zm22.06-28.9q23.25-25.47,23.26-54.54a84.16,84.16,0,0,0-1.37-14.7q-4.29-21-24.11-26.68l-1.37-.34c-.45,0-.68.63-.68,1.88a78.3,78.3,0,0,1,.51,8.55q-1.54,21.72-3.25,55.91-1.54,17.28-1.54,37.28A37.63,37.63,0,0,0,971.81,650.94Z" transform="translate(-96 -352.42)"/><path class="cls-1" d="M1037.64,686.68a17.74,17.74,0,0,1-4.27-4.45,37.87,37.87,0,0,1-5.31-18.29l-1-6.84a343.64,343.64,0,0,1-2.91-45.65v-18q0-11.46.86-23.77l.34-12.32a42.23,42.23,0,0,1,1-9.57l.16-1.2q1-7.7,8.21-10.08a48.27,48.27,0,0,1,15.39-2.4,74.78,74.78,0,0,1,10.09.68,49.7,49.7,0,0,1,9.4.86l1.37.17a33.53,33.53,0,0,1,16.59,10.69,46.2,46.2,0,0,1,9.06,17.86,80.25,80.25,0,0,1,2.74,20.7,73.22,73.22,0,0,1-2.23,17.78,47.4,47.4,0,0,1-17.61,24.62,2.54,2.54,0,0,0-1.71,2.22l.69,2,12.82,19.84q3.76,5.48,3.76,10.26a10.25,10.25,0,0,1-3.93,8.55,12.94,12.94,0,0,1-8,3.07q-7.17,0-13.85-11.62-13.17-23.25-13.68-23.77a1.64,1.64,0,0,0-1.19-.51c-1.14.23-1.71.74-1.71,1.54v33a38.4,38.4,0,0,1-1,9.06,13.53,13.53,0,0,1-3.5,5,7.43,7.43,0,0,1-5.05,2.05A9.33,9.33,0,0,1,1037.64,686.68Zm17.78-72q11.11-4.46,15.74-13.77a43.27,43.27,0,0,0,4.61-19.4,49.47,49.47,0,0,0-5.3-22.06,19.24,19.24,0,0,0-14-10.6c-1.14,0-1.71.28-1.71.85l.17,6-2.73,47.19v9.75c0,1.59.51,2.39,1.53,2.39Z" transform="translate(-96 -352.42)"/><path class="cls-1" d="M1149.46,682.23q-18.3-3.75-26.84-20.34-11.8-25.82-11.8-48.73l-.17-6.67q0-28.38,8.72-49.08a40.09,40.09,0,0,1,12.9-17.09,29.38,29.38,0,0,1,17.87-6.16q13.33,0,22.91,11a47.24,47.24,0,0,1,8.38,13.67q9.24,22.07,9.24,62.41a137.67,137.67,0,0,1-5.3,37.45q-4.29,18.3-22.06,23.59a20.83,20.83,0,0,1-6.33,1A28.27,28.27,0,0,1,1149.46,682.23Zm13.34-16.58a7.71,7.71,0,0,0,4.36-3,38.62,38.62,0,0,0,3.16-6.07v-.69a102,102,0,0,0,4.1-20.35q1-10.42,1.2-20.85a142.06,142.06,0,0,0-1.54-20.86,85.86,85.86,0,0,0-7-28.9,27.28,27.28,0,0,0-3.68-8,16,16,0,0,0-7.09-5.39q-9.75,2.05-13.85,11.63a67.92,67.92,0,0,0-6.67,21.46,200.93,200.93,0,0,0-1.54,22.65q0,16.59,5,37.45a33,33,0,0,0,6.5,15.56q5.13,6,12,6Z" transform="translate(-96 -352.42)"/><polygon class="cls-2" points="194.43 272.85 194.43 272.84 194.43 272.84 194.43 272.85"/><path class="cls-2" d="M296.06,645.53l0,.1Z" transform="translate(-96 -352.42)"/><path class="cls-2" d="M297.13,650q.57,2.61,1.09,5.58Q297.7,652.63,297.13,650Z" transform="translate(-96 -352.42)"/><path class="cls-2" d="M293.86,638.28l0,.05Z" transform="translate(-96 -352.42)"/><path class="cls-2" d="M208.59,609.62c2.73-5.34,5.56-10.9,8.42-16.9C214.15,598.72,211.32,604.28,208.59,609.62Z" transform="translate(-96 -352.42)"/><path class="cls-2" d="M300.64,672.62c-.4-3.37-.79-6.39-1.18-9.18C299.85,666.23,300.24,669.25,300.64,672.62Z" transform="translate(-96 -352.42)"/><path class="cls-1" d="M298.9,663.52c-.39-2.83-.8-5.39-1.23-7.82-.36-2-.72-3.84-1.09-5.56-.33-1.52-.68-3-1-4.37-.66-2.52-1.37-4.86-2.19-7.25-1.36-3.95-2.94-7.8-4.9-12.38-4.15-9.18-5-14-3-16.56s6.06-1.89,10.75-1.07a60.07,60.07,0,0,0,6,.84c16.09,1.16,27.38.45,30.18-1.85.84-.69,1.93-1.69,3.15-2.9a25.6,25.6,0,0,1-5.12.48c-13.8,0-31.68-8.36-32.43-8.71a1.34,1.34,0,0,1-.71-.77,1.32,1.32,0,0,1,.05-1.05,1.35,1.35,0,0,1,1.81-.66c1.32.61,32.41,14.75,41.63,5.18a109.33,109.33,0,0,0,9.54-12.24,10.65,10.65,0,0,1-4.36-2c-2.41-1.74-5.14-4.71-5.57-7.82-.37-2.7,4.15-6.87,7.38-8.22-3.65-2.34-7.35-4.54-12-7.32l-.33-.2c-2.21-1.31-4.52-2.67-6.94-4.13a21,21,0,0,1-5-4.15,3.82,3.82,0,0,1-2.44-.58,6.35,6.35,0,0,1-3-4.19c-.57-3.22-.29-5.18.84-6-.14-.82-.28-1.64-.41-2.48-.7-4.57-1.43-9.27-4.58-14.45-8.12-13.37-22.67-20.93-40.12-20.93l-1.89,0c-15.33.48-30.13,7-34.43,15.17l-.33.4c-20.82,14.42-33.56,33.69-37.74,40l-.14.2c-.46.7-.81,1.23-1,1.56-1.78,2.47-2,5.58-.54,9.24,4.17,10.71,20.12,22.06,35.57,25.29,3.8.8,6.69.25,8.83-1.69,7.11-6.44,4.89-26.62,3.11-42.84-.84-7.67-1.56-14.24-1.23-18.53a1.33,1.33,0,0,1,.48-1,1.3,1.3,0,0,1,1-.31,1.36,1.36,0,0,1,1.25,1.46c-.3,4.06.41,10.53,1.23,18,1.85,16.84,4.15,37.79-4,45.17-2.8,2.53-6.57,3.32-11.24,2.34a60.59,60.59,0,0,1-15.26-5.6c-2.78,5.81-5.49,11.14-8.25,16.53-8,15.58-15.49,30.29-19.83,50.38l-.11.51a60.36,60.36,0,0,0,9.27,10.88c-.34-4.46-.29-7.66.15-9.5a1.39,1.39,0,0,1,1.64-1,1.38,1.38,0,0,1,1,1.66c-.46,1.87-.44,5.65.06,10.92l.05.53c22.08,18.18,56.75,22.16,85.38,7.45l0-.34c.79-7.51.91-13.17.33-15.54a1.37,1.37,0,0,1,1-1.65,1.36,1.36,0,0,1,1.65,1c.61,2.5.57,7.8-.1,15A80.07,80.07,0,0,0,300.12,673l0-.34C299.69,669.31,299.3,666.31,298.9,663.52Zm-3.51-114.16c2.69-.71,5.49,1.26,6.25,4.42s-.78,6.29-3.47,7-5.48-1.26-6.25-4.41S292.71,550.08,295.39,549.36Z" transform="translate(-96 -352.42)"/><path class="cls-1" d="M407.5,578.4C402.14,522.66,330.26,456,260.9,472S169.79,568.23,180,636.68a59.17,59.17,0,0,0,7.15,20.71c4.47-19.25,11.79-33.59,19.54-48.75,2.79-5.46,5.53-10.83,8.29-16.6-9.76-5.61-17.17-13.08-19.89-20.07-1.75-4.51-1.45-8.6.87-11.83.24-.34.61-.89,1.1-1.64,4.24-6.43,17.1-25.9,38.12-40.53,5-9,20.32-15.82,36.6-16.32,19.26-.66,35.47,7.48,44.43,22.2,3.43,5.66,4.23,10.87,4.94,15.46.16,1,.32,2,.49,2.92,2.69,1.34,4.11,6.11,3.65,8.72a18,18,0,0,0,4.58,3.82c2.1,1.27,4.12,2.47,6.05,3.62l1.2.71c6,3.56,11,6.56,16.07,10a7,7,0,0,1,2.33,1.61l.11.06a5.41,5.41,0,0,1,2.25,4.47c.26,7.52-10.27,20.27-14.93,25.54v0l-.13.14a90.13,90.13,0,0,1-8.67,8.69c-4.42,3.63-19.89,3.34-32.11,2.47a62.81,62.81,0,0,1-6.27-.87c-3.51-.62-7.14-1.24-8.13,0-.67.87-1.13,3.76,3.21,13.46h0l.14.34s0,0,0,0l.07.16c6.14,14.35,8.76,22.15,11.59,45.69,1.87-1.61,3.7-3.28,5.45-5.11C329.46,643.49,414.44,650.55,407.5,578.4Z" transform="translate(-96 -352.42)"/></svg>